<svg xmlns="http://www.w3.org/2000/svg" xmlns:xlink="http://www.w3.org/1999/xlink" contentStyleType="text/css" data-diagram-type="CLASS" height="828px" preserveAspectRatio="none" style="width:382px;height:828px;background:#FFFFFF;" version="1.1" viewBox="0 0 382 828" width="382px" zoomAndPan="magnify"><defs/><g><!--class ??????--><g class="entity" data-entity="......" data-source-line="1" data-uid="ent0002" id="entity_......"><rect fill="#F1F1F1" height="96.8906" rx="2.5" ry="2.5" style="stroke:#181818;stroke-width:0.5;" width="85.9082" x="129.59" y="7"/><ellipse cx="144.59" cy="23" fill="#ADD1B2" rx="11" ry="11" style="stroke:#181818;stroke-width:1;"/><path d="M148.6994,29 L140.9806,29 L140.9806,16.6094 L148.6994,16.6094 L148.6994,18.7656 L143.4338,18.7656 L143.4338,21.4375 L148.1994,21.4375 L148.1994,23.5938 L143.4338,23.5938 L143.4338,26.8438 L148.6994,26.8438 L148.6994,29 Z " fill="#000000"/><text fill="#000000" font-family="sans-serif" font-size="14" lengthAdjust="spacing" textLength="53.9082" x="158.59" y="27.8467">&#1050;&#1083;&#1080;&#1077;&#1085;&#1090;</text><line style="stroke:#181818;stroke-width:0.5;" x1="130.59" x2="214.4982" y1="39" y2="39"/><ellipse cx="140.59" cy="52.6484" fill="#000000" rx="3" ry="3" style="stroke:#000000;stroke-width:1;"/><text fill="#000000" font-family="sans-serif" font-size="14" lengthAdjust="spacing" textLength="58.2285" x="149.59" y="55.9951">id_client</text><line style="stroke:#181818;stroke-width:1;" x1="130.59" x2="214.4982" y1="63.2969" y2="63.2969"/><text fill="#000000" font-family="sans-serif" font-size="14" lengthAdjust="spacing" textLength="29.6338" x="135.59" y="80.292">&#1092;&#1080;&#1086;</text><text fill="#000000" font-family="sans-serif" font-size="14" lengthAdjust="spacing" textLength="70.5742" x="135.59" y="96.5889">&#1082;&#1086;&#1085;&#1090;&#1072;&#1082;&#1090;&#1099;</text></g><!--class ?????--><g class="entity" data-entity="....." data-source-line="8" data-uid="ent0003" id="entity_....."><rect fill="#F1F1F1" height="210.9688" rx="2.5" ry="2.5" style="stroke:#181818;stroke-width:0.5;" width="125.7295" x="175.68" y="180.9"/><ellipse cx="213.9429" cy="196.9" fill="#ADD1B2" rx="11" ry="11" style="stroke:#181818;stroke-width:1;"/><path d="M218.0523,202.9 L210.3335,202.9 L210.3335,190.5094 L218.0523,190.5094 L218.0523,192.6656 L212.7866,192.6656 L212.7866,195.3375 L217.5523,195.3375 L217.5523,197.4937 L212.7866,197.4937 L212.7866,200.7437 L218.0523,200.7437 L218.0523,202.9 Z " fill="#000000"/><text fill="#000000" font-family="sans-serif" font-size="14" lengthAdjust="spacing" textLength="42.0342" x="233.1124" y="201.7467">&#1047;&#1072;&#1082;&#1072;&#1079;</text><line style="stroke:#181818;stroke-width:0.5;" x1="176.68" x2="300.4095" y1="212.9" y2="212.9"/><ellipse cx="186.68" cy="226.5484" fill="#000000" rx="3" ry="3" style="stroke:#000000;stroke-width:1;"/><text fill="#000000" font-family="sans-serif" font-size="14" lengthAdjust="spacing" textLength="57.3535" x="195.68" y="229.8951">id_order</text><line style="stroke:#181818;stroke-width:1;" x1="176.68" x2="300.4095" y1="237.1969" y2="237.1969"/><ellipse cx="186.68" cy="250.8453" fill="#000000" rx="3" ry="3" style="stroke:#000000;stroke-width:1;"/><text fill="#000000" font-family="sans-serif" font-size="14" lengthAdjust="spacing" textLength="58.2285" x="195.68" y="254.192">id_client</text><ellipse cx="186.68" cy="267.1422" fill="#000000" rx="3" ry="3" style="stroke:#000000;stroke-width:1;"/><text fill="#000000" font-family="sans-serif" font-size="14" lengthAdjust="spacing" textLength="82.7012" x="195.68" y="270.4889">id_manager</text><text fill="#000000" font-family="sans-serif" font-size="14" lengthAdjust="spacing" textLength="84.6221" x="195.68" y="286.7857">&#1082;&#1086;&#1083;&#1080;&#1095;&#1077;&#1089;&#1090;&#1074;&#1086;</text><text fill="#000000" font-family="sans-serif" font-size="14" lengthAdjust="spacing" textLength="34.9932" x="195.68" y="303.0826">&#1076;&#1072;&#1090;&#1072;</text><text fill="#000000" font-family="sans-serif" font-size="14" lengthAdjust="spacing" textLength="35.875" x="195.68" y="319.3795">&#1094;&#1077;&#1085;&#1072;</text><text fill="#000000" font-family="sans-serif" font-size="14" lengthAdjust="spacing" textLength="48.5693" x="195.68" y="335.6764">&#1089;&#1090;&#1072;&#1090;&#1091;&#1089;</text><text fill="#000000" font-family="sans-serif" font-size="14" lengthAdjust="spacing" textLength="99.7295" x="195.68" y="351.9732">&#1082;&#1086;&#1084;&#1084;&#1077;&#1085;&#1090;&#1072;&#1088;&#1080;&#1081;</text><ellipse cx="186.68" cy="364.9234" fill="#000000" rx="3" ry="3" style="stroke:#000000;stroke-width:1;"/><text fill="#000000" font-family="sans-serif" font-size="14" lengthAdjust="spacing" textLength="53.1426" x="195.68" y="368.2701">id_&#1089;&#1090;&#1086;&#1083;</text><ellipse cx="186.68" cy="381.2203" fill="#000000" rx="3" ry="3" style="stroke:#000000;stroke-width:1;"/><text fill="#000000" font-family="sans-serif" font-size="14" lengthAdjust="spacing" textLength="87.7393" x="195.68" y="384.567">id_&#1076;&#1086;&#1089;&#1090;&#1072;&#1074;&#1082;&#1072;</text></g><!--class ????--><g class="entity" data-entity="...." data-source-line="22" data-uid="ent0004" id="entity_...."><rect fill="#F1F1F1" height="145.7813" rx="2.5" ry="2.5" style="stroke:#181818;stroke-width:0.5;" width="136.9268" x="90.08" y="468.86"/><ellipse cx="136.5712" cy="484.86" fill="#ADD1B2" rx="11" ry="11" style="stroke:#181818;stroke-width:1;"/><path d="M140.6806,490.86 L132.9618,490.86 L132.9618,478.4694 L140.6806,478.4694 L140.6806,480.6256 L135.415,480.6256 L135.415,483.2975 L140.1806,483.2975 L140.1806,485.4538 L135.415,485.4538 L135.415,488.7038 L140.6806,488.7038 L140.6806,490.86 Z " fill="#000000"/><text fill="#000000" font-family="sans-serif" font-size="14" lengthAdjust="spacing" textLength="35.4443" x="157.0712" y="489.7067">&#1057;&#1090;&#1086;&#1083;</text><line style="stroke:#181818;stroke-width:0.5;" x1="91.08" x2="226.0068" y1="500.86" y2="500.86"/><ellipse cx="101.08" cy="514.5084" fill="#000000" rx="3" ry="3" style="stroke:#000000;stroke-width:1;"/><text fill="#000000" font-family="sans-serif" font-size="14" lengthAdjust="spacing" textLength="53.1426" x="110.08" y="517.8551">id_&#1089;&#1090;&#1086;&#1083;</text><line style="stroke:#181818;stroke-width:1;" x1="91.08" x2="226.0068" y1="525.1569" y2="525.1569"/><text fill="#000000" font-family="sans-serif" font-size="14" lengthAdjust="spacing" textLength="79.4131" x="110.08" y="542.152">3d_&#1084;&#1086;&#1076;&#1077;&#1083;&#1100;</text><text fill="#000000" font-family="sans-serif" font-size="14" lengthAdjust="spacing" textLength="55.1523" x="110.08" y="558.4489">&#1095;&#1077;&#1088;&#1090;&#1077;&#1078;</text><text fill="#000000" font-family="sans-serif" font-size="14" lengthAdjust="spacing" textLength="84.6221" x="110.08" y="574.7457">&#1082;&#1086;&#1083;&#1080;&#1095;&#1077;&#1089;&#1090;&#1074;&#1086;</text><ellipse cx="101.08" cy="587.6959" fill="#000000" rx="3" ry="3" style="stroke:#000000;stroke-width:1;"/><text fill="#000000" font-family="sans-serif" font-size="14" lengthAdjust="spacing" textLength="70.4307" x="110.08" y="591.0426">id_&#1082;&#1072;&#1088;&#1082;&#1072;&#1089;</text><ellipse cx="101.08" cy="603.9928" fill="#000000" rx="3" ry="3" style="stroke:#000000;stroke-width:1;"/><text fill="#000000" font-family="sans-serif" font-size="14" lengthAdjust="spacing" textLength="110.9268" x="110.08" y="607.3395">id_&#1089;&#1090;&#1086;&#1083;&#1077;&#1096;&#1085;&#1080;&#1094;&#1072;</text></g><!--class ??????_?????--><g class="entity" data-entity="......_....." data-source-line="32" data-uid="ent0005" id="entity_......_....."><rect fill="#F1F1F1" height="129.4844" rx="2.5" ry="2.5" style="stroke:#181818;stroke-width:0.5;" width="133.083" x="7" y="691.65"/><ellipse cx="22" cy="707.65" fill="#ADD1B2" rx="11" ry="11" style="stroke:#181818;stroke-width:1;"/><path d="M26.1094,713.65 L18.3906,713.65 L18.3906,701.2594 L26.1094,701.2594 L26.1094,703.4156 L20.8438,703.4156 L20.8438,706.0875 L25.6094,706.0875 L25.6094,708.2438 L20.8438,708.2438 L20.8438,711.4938 L26.1094,711.4938 L26.1094,713.65 Z " fill="#000000"/><text fill="#000000" font-family="sans-serif" font-size="14" lengthAdjust="spacing" textLength="101.083" x="36" y="712.4967">&#1050;&#1072;&#1088;&#1082;&#1072;&#1089;_&#1089;&#1090;&#1086;&#1083;&#1072;</text><line style="stroke:#181818;stroke-width:0.5;" x1="8" x2="139.083" y1="723.65" y2="723.65"/><ellipse cx="18" cy="737.2984" fill="#000000" rx="3" ry="3" style="stroke:#000000;stroke-width:1;"/><text fill="#000000" font-family="sans-serif" font-size="14" lengthAdjust="spacing" textLength="70.4307" x="27" y="740.6451">id_&#1082;&#1072;&#1088;&#1082;&#1072;&#1089;</text><line style="stroke:#181818;stroke-width:1;" x1="8" x2="139.083" y1="747.9469" y2="747.9469"/><text fill="#000000" font-family="sans-serif" font-size="14" lengthAdjust="spacing" textLength="64.0254" x="13" y="764.942">&#1088;&#1072;&#1079;&#1084;&#1077;&#1088;&#1099;</text><text fill="#000000" font-family="sans-serif" font-size="14" lengthAdjust="spacing" textLength="48.5625" x="13" y="781.2389">&#1092;&#1086;&#1088;&#1084;&#1072;</text><text fill="#000000" font-family="sans-serif" font-size="14" lengthAdjust="spacing" textLength="34.5488" x="13" y="797.5357">&#1094;&#1074;&#1077;&#1090;</text><text fill="#000000" font-family="sans-serif" font-size="14" lengthAdjust="spacing" textLength="88.7305" x="13" y="813.8326">&#1092;&#1086;&#1088;&#1084;&#1072;_&#1091;&#1075;&#1083;&#1072;</text></g><!--class ??????????--><g class="entity" data-entity=".........." data-source-line="41" data-uid="ent0006" id="entity_.........."><rect fill="#F1F1F1" height="129.4844" rx="2.5" ry="2.5" style="stroke:#181818;stroke-width:0.5;" width="136.9268" x="175.08" y="691.65"/><ellipse cx="195.3442" cy="707.65" fill="#ADD1B2" rx="11" ry="11" style="stroke:#181818;stroke-width:1;"/><path d="M199.4536,713.65 L191.7348,713.65 L191.7348,701.2594 L199.4536,701.2594 L199.4536,703.4156 L194.188,703.4156 L194.188,706.0875 L198.9536,706.0875 L198.9536,708.2438 L194.188,708.2438 L194.188,711.4938 L199.4536,711.4938 L199.4536,713.65 Z " fill="#000000"/><text fill="#000000" font-family="sans-serif" font-size="14" lengthAdjust="spacing" textLength="93.2285" x="210.514" y="712.4967">&#1057;&#1090;&#1086;&#1083;&#1077;&#1096;&#1085;&#1080;&#1094;&#1072;</text><line style="stroke:#181818;stroke-width:0.5;" x1="176.08" x2="311.0068" y1="723.65" y2="723.65"/><ellipse cx="186.08" cy="737.2984" fill="#000000" rx="3" ry="3" style="stroke:#000000;stroke-width:1;"/><text fill="#000000" font-family="sans-serif" font-size="14" lengthAdjust="spacing" textLength="110.9268" x="195.08" y="740.6451">id_&#1089;&#1090;&#1086;&#1083;&#1077;&#1096;&#1085;&#1080;&#1094;&#1072;</text><line style="stroke:#181818;stroke-width:1;" x1="176.08" x2="311.0068" y1="747.9469" y2="747.9469"/><text fill="#000000" font-family="sans-serif" font-size="14" lengthAdjust="spacing" textLength="71.4219" x="181.08" y="764.942">&#1084;&#1072;&#1090;&#1077;&#1088;&#1080;&#1072;&#1083;</text><text fill="#000000" font-family="sans-serif" font-size="14" lengthAdjust="spacing" textLength="48.5625" x="181.08" y="781.2389">&#1092;&#1086;&#1088;&#1084;&#1072;</text><text fill="#000000" font-family="sans-serif" font-size="14" lengthAdjust="spacing" textLength="64.0254" x="181.08" y="797.5357">&#1088;&#1072;&#1079;&#1084;&#1077;&#1088;&#1099;</text><text fill="#000000" font-family="sans-serif" font-size="14" lengthAdjust="spacing" textLength="88.7305" x="181.08" y="813.8326">&#1092;&#1086;&#1088;&#1084;&#1072;_&#1091;&#1075;&#1083;&#1072;</text></g><!--class ????????--><g class="entity" data-entity="........" data-source-line="50" data-uid="ent0007" id="entity_........"><rect fill="#F1F1F1" height="129.4844" rx="2.5" ry="2.5" style="stroke:#181818;stroke-width:0.5;" width="113.7393" x="261.67" y="477.01"/><ellipse cx="282.3033" cy="493.01" fill="#ADD1B2" rx="11" ry="11" style="stroke:#181818;stroke-width:1;"/><path d="M286.4127,499.01 L278.694,499.01 L278.694,486.6194 L286.4127,486.6194 L286.4127,488.7756 L281.1471,488.7756 L281.1471,491.4475 L285.9127,491.4475 L285.9127,493.6038 L281.1471,493.6038 L281.1471,496.8538 L286.4127,496.8538 L286.4127,499.01 Z " fill="#000000"/><text fill="#000000" font-family="sans-serif" font-size="14" lengthAdjust="spacing" textLength="69.2207" x="297.5552" y="497.8567">&#1044;&#1086;&#1089;&#1090;&#1072;&#1074;&#1082;&#1072;</text><line style="stroke:#181818;stroke-width:0.5;" x1="262.67" x2="374.4093" y1="509.01" y2="509.01"/><ellipse cx="272.67" cy="522.6584" fill="#000000" rx="3" ry="3" style="stroke:#000000;stroke-width:1;"/><text fill="#000000" font-family="sans-serif" font-size="14" lengthAdjust="spacing" textLength="87.7393" x="281.67" y="526.0051">id_&#1076;&#1086;&#1089;&#1090;&#1072;&#1074;&#1082;&#1072;</text><line style="stroke:#181818;stroke-width:1;" x1="262.67" x2="374.4093" y1="533.3069" y2="533.3069"/><text fill="#000000" font-family="sans-serif" font-size="14" lengthAdjust="spacing" textLength="29.6338" x="267.67" y="550.302">&#1092;&#1080;&#1086;</text><text fill="#000000" font-family="sans-serif" font-size="14" lengthAdjust="spacing" textLength="34.9932" x="267.67" y="566.5989">&#1076;&#1072;&#1090;&#1072;</text><text fill="#000000" font-family="sans-serif" font-size="14" lengthAdjust="spacing" textLength="43.4561" x="267.67" y="582.8957">&#1072;&#1076;&#1088;&#1077;&#1089;</text><text fill="#000000" font-family="sans-serif" font-size="14" lengthAdjust="spacing" textLength="35.875" x="267.67" y="599.1926">&#1094;&#1077;&#1085;&#1072;</text></g><!--class ????????--><g class="entity" data-entity="........" data-source-line="59" data-uid="ent0008" id="entity_........"><rect fill="#F1F1F1" height="96.8906" rx="2.5" ry="2.5" style="stroke:#181818;stroke-width:0.5;" width="110.251" x="250.42" y="7"/><ellipse cx="265.42" cy="23" fill="#ADD1B2" rx="11" ry="11" style="stroke:#181818;stroke-width:1;"/><path d="M269.5294,29 L261.8106,29 L261.8106,16.6094 L269.5294,16.6094 L269.5294,18.7656 L264.2637,18.7656 L264.2637,21.4375 L269.0294,21.4375 L269.0294,23.5938 L264.2637,23.5938 L264.2637,26.8438 L269.5294,26.8438 L269.5294,29 Z " fill="#000000"/><text fill="#000000" font-family="sans-serif" font-size="14" lengthAdjust="spacing" textLength="78.251" x="279.42" y="27.8467">&#1052;&#1077;&#1085;&#1077;&#1076;&#1078;&#1077;&#1088;</text><line style="stroke:#181818;stroke-width:0.5;" x1="251.42" x2="359.671" y1="39" y2="39"/><ellipse cx="261.42" cy="52.6484" fill="#000000" rx="3" ry="3" style="stroke:#000000;stroke-width:1;"/><text fill="#000000" font-family="sans-serif" font-size="14" lengthAdjust="spacing" textLength="82.7012" x="270.42" y="55.9951">id_manager</text><line style="stroke:#181818;stroke-width:1;" x1="251.42" x2="359.671" y1="63.2969" y2="63.2969"/><text fill="#000000" font-family="sans-serif" font-size="14" lengthAdjust="spacing" textLength="29.6338" x="256.42" y="80.292">&#1092;&#1080;&#1086;</text><text fill="#000000" font-family="sans-serif" font-size="14" lengthAdjust="spacing" textLength="70.5742" x="256.42" y="96.5889">&#1082;&#1086;&#1085;&#1090;&#1072;&#1082;&#1090;&#1099;</text></g><!--link ?????? to ?????--><g class="link" data-entity-1="......" data-entity-2="....." data-source-line="66" data-uid="lnk9" id="link_......_....."><path codeLine="66" d="M188.5151,111.8472 C194.9351,134.1272 195.6549,136.6041 203.3649,163.3541" fill="none" id="&#1050;&#1083;&#1080;&#1077;&#1085;&#1090;-&#1047;&#1072;&#1082;&#1072;&#1079;" style="stroke:#181818;stroke-width:1;"/><line style="stroke:#181818;stroke-width:1;" x1="183.5639" x2="191.2512" y1="109.1112" y2="106.8961"/><line style="stroke:#181818;stroke-width:1;" x1="184.3946" x2="192.0818" y1="111.9939" y2="109.7788"/><line style="stroke:#181818;stroke-width:1;" x1="188.5151" x2="186.3" y1="111.8472" y2="104.16"/><line style="stroke:#181818;stroke-width:1;" x1="206.1344" x2="214.1153" y1="172.9629" y2="178.9883"/><line style="stroke:#181818;stroke-width:1;" x1="206.1344" x2="202.5847" y1="172.9629" y2="182.3117"/><line style="stroke:#181818;stroke-width:1;" x1="206.1344" x2="208.35" y1="172.9629" y2="180.65"/><ellipse cx="204.4727" cy="167.1976" fill="none" rx="4" ry="4" style="stroke:#181818;stroke-width:1;"/><text fill="#000000" font-family="sans-serif" font-size="13" lengthAdjust="spacing" textLength="41.8247" x="201.54" y="146.9669">&#1080;&#1084;&#1077;&#1077;&#1090;</text></g><!--link ???????? to ?????--><g class="link" data-entity-1="........" data-entity-2="....." data-source-line="67" data-uid="lnk10" id="link_........_....."><path codeLine="67" d="M289.3331,111.838 C282.8131,134.118 282.0766,136.6249 274.2466,163.3749" fill="none" id="&#1052;&#1077;&#1085;&#1077;&#1076;&#1078;&#1077;&#1088;-&#1047;&#1072;&#1082;&#1072;&#1079;" style="stroke:#181818;stroke-width:1;"/><line style="stroke:#181818;stroke-width:1;" x1="286.6176" x2="294.2956" y1="106.8756" y2="109.1224"/><line style="stroke:#181818;stroke-width:1;" x1="285.775" x2="293.453" y1="109.7548" y2="112.0017"/><line style="stroke:#181818;stroke-width:1;" x1="289.3331" x2="291.58" y1="111.838" y2="104.16"/><line style="stroke:#181818;stroke-width:1;" x1="271.4374" x2="274.9484" y1="172.9722" y2="182.3355"/><line style="stroke:#181818;stroke-width:1;" x1="271.4374" x2="263.4316" y1="172.9722" y2="178.9645"/><line style="stroke:#181818;stroke-width:1;" x1="271.4374" x2="269.19" y1="172.9722" y2="180.65"/><ellipse cx="273.1229" cy="167.2138" fill="none" rx="4" ry="4" style="stroke:#181818;stroke-width:1;"/><text fill="#000000" font-family="sans-serif" font-size="13" lengthAdjust="spacing" textLength="90.4795" x="282.54" y="146.9669">&#1086;&#1073;&#1089;&#1083;&#1091;&#1078;&#1080;&#1074;&#1072;&#1077;&#1090;</text></g><!--link ????? to ????--><g class="link" data-entity-1="....." data-entity-2="...." data-source-line="68" data-uid="lnk11" id="link_....._...."><path codeLine="68" d="M200.0003,409.4347 C191.9203,435.0247 191.2887,437.0512 183.8087,460.7412" fill="none" id="&#1047;&#1072;&#1082;&#1072;&#1079;-&#1057;&#1090;&#1086;&#1083;" style="stroke:#181818;stroke-width:1;"/><line style="stroke:#181818;stroke-width:1;" x1="203.0112" x2="199.6984" y1="399.8988" y2="390.4634"/><line style="stroke:#181818;stroke-width:1;" x1="203.0112" x2="211.1416" y1="399.8988" y2="394.0766"/><line style="stroke:#181818;stroke-width:1;" x1="203.0112" x2="205.42" y1="399.8988" y2="392.27"/><ellipse cx="201.2047" cy="405.6203" fill="none" rx="4" ry="4" style="stroke:#181818;stroke-width:1;"/><line style="stroke:#181818;stroke-width:1;" x1="186.4188" x2="178.79" y1="465.76" y2="463.3512"/><line style="stroke:#181818;stroke-width:1;" x1="187.322" x2="179.6933" y1="462.8992" y2="460.4905"/><line style="stroke:#181818;stroke-width:1;" x1="183.8087" x2="181.4" y1="460.7412" y2="468.37"/><text fill="#000000" font-family="sans-serif" font-size="13" lengthAdjust="spacing" textLength="68.0723" x="195.54" y="434.9269">&#1089;&#1086;&#1076;&#1077;&#1088;&#1078;&#1080;&#1090;</text></g><!--link ????? to ????????--><g class="link" data-entity-1="....." data-entity-2="........" data-source-line="69" data-uid="lnk12" id="link_....._........"><path codeLine="69" d="M277.0758,409.4359 C286.0958,438.0259 287.7812,443.3412 295.8612,468.9312" fill="none" id="&#1047;&#1072;&#1082;&#1072;&#1079;-&#1044;&#1086;&#1089;&#1090;&#1072;&#1074;&#1082;&#1072;" style="stroke:#181818;stroke-width:1;"/><line style="stroke:#181818;stroke-width:1;" x1="274.067" x2="265.938" y1="399.8993" y2="394.0753"/><line style="stroke:#181818;stroke-width:1;" x1="274.067" x2="277.382" y1="399.8993" y2="390.4647"/><line style="stroke:#181818;stroke-width:1;" x1="274.067" x2="271.66" y1="399.8993" y2="392.27"/><ellipse cx="275.8723" cy="405.6213" fill="none" rx="4" ry="4" style="stroke:#181818;stroke-width:1;"/><line style="stroke:#181818;stroke-width:1;" x1="300.88" x2="293.2512" y1="471.5412" y2="473.95"/><line style="stroke:#181818;stroke-width:1;" x1="299.9767" x2="292.348" y1="468.6805" y2="471.0892"/><line style="stroke:#181818;stroke-width:1;" x1="295.8612" x2="298.27" y1="468.9312" y2="476.56"/><text fill="#000000" font-family="sans-serif" font-size="13" lengthAdjust="spacing" textLength="68.0723" x="286.54" y="434.9269">&#1089;&#1086;&#1076;&#1077;&#1088;&#1078;&#1080;&#1090;</text></g><!--link ???? to ??????_?????--><g class="link" data-entity-1="...." data-entity-2="......_....." data-source-line="70" data-uid="lnk13" id="link_...._......_....."><path codeLine="70" d="M122.965,631.7526 C113.045,656.5526 111.6795,659.9715 102.0495,684.0615" fill="none" id="&#1057;&#1090;&#1086;&#1083;-&#1050;&#1072;&#1088;&#1082;&#1072;&#1089;_&#1089;&#1090;&#1086;&#1083;&#1072;" style="stroke:#181818;stroke-width:1;"/><line style="stroke:#181818;stroke-width:1;" x1="126.6789" x2="124.0791" y1="622.4678" y2="612.8117"/><line style="stroke:#181818;stroke-width:1;" x1="126.6789" x2="135.2209" y1="622.4678" y2="617.2683"/><line style="stroke:#181818;stroke-width:1;" x1="126.6789" x2="129.65" y1="622.4678" y2="615.04"/><ellipse cx="124.4505" cy="628.0387" fill="none" rx="4" ry="4" style="stroke:#181818;stroke-width:1;"/><line style="stroke:#181818;stroke-width:1;" x1="104.279" x2="96.8505" y1="689.2605" y2="686.291"/><line style="stroke:#181818;stroke-width:1;" x1="105.3926" x2="97.9641" y1="686.4749" y2="683.5053"/><line style="stroke:#181818;stroke-width:1;" x1="102.0495" x2="99.08" y1="684.0615" y2="691.49"/><text fill="#000000" font-family="sans-serif" font-size="13" lengthAdjust="spacing" textLength="68.0723" x="117.54" y="657.7169">&#1089;&#1086;&#1076;&#1077;&#1088;&#1078;&#1080;&#1090;</text></g><!--link ???? to ??????????--><g class="link" data-entity-1="...." data-entity-2=".........." data-source-line="71" data-uid="lnk14" id="link_...._.........."><path codeLine="71" d="M194.1192,631.7549 C204.0292,656.5549 205.4005,659.9715 215.0305,684.0615" fill="none" id="&#1057;&#1090;&#1086;&#1083;-&#1057;&#1090;&#1086;&#1083;&#1077;&#1096;&#1085;&#1080;&#1094;&#1072;" style="stroke:#181818;stroke-width:1;"/><line style="stroke:#181818;stroke-width:1;" x1="190.4085" x2="181.8684" y1="622.4688" y2="617.2664"/><line style="stroke:#181818;stroke-width:1;" x1="190.4085" x2="193.0116" y1="622.4688" y2="612.8136"/><line style="stroke:#181818;stroke-width:1;" x1="190.4085" x2="187.44" y1="622.4688" y2="615.04"/><ellipse cx="192.635" cy="628.0405" fill="none" rx="4" ry="4" style="stroke:#181818;stroke-width:1;"/><line style="stroke:#181818;stroke-width:1;" x1="220.2295" x2="212.801" y1="686.291" y2="689.2605"/><line style="stroke:#181818;stroke-width:1;" x1="219.1159" x2="211.6874" y1="683.5053" y2="686.4749"/><line style="stroke:#181818;stroke-width:1;" x1="215.0305" x2="218" y1="684.0615" y2="691.49"/><text fill="#000000" font-family="sans-serif" font-size="13" lengthAdjust="spacing" textLength="68.0723" x="205.54" y="657.7169">&#1089;&#1086;&#1076;&#1077;&#1088;&#1078;&#1080;&#1090;</text></g><!--SRC=[ZLFBIiD05DtdAqANGbRk_9bIR922fb2waQQGXsYXBWMXkF4FOcrgJME-uSuVUUvCaidaWH8ICdVEEVVSEtTSRpbRtjkqepETAAKV4TahoxOlPjFnzUtCzPPOE0u-uW600Z-KKS4uIYWJaTXQQyjoIvbN3kBzgaNcYwcxg3GCLLxSJRp9ZToNgl0WdYWL8TJtAjc14ax51XxPd_fb0E8Y5c75pV6aofS8OFMxJ26na2wN42mK7HbWjUd-NI5hxmsgj7y9Uex00OdEufcDiDi0g9IEmqN8l9dqnT-m9G_i1eMTKA1XPwSP6flKxbgAwf02RZvt0gwswjGA1FEgWtliH4PyB6BwPE6UJZITTRfYs2xpio1tGvv08ZjdEXZsr-lZnJmiNNlx53j3gkS6c0DIfB9BzH0rahp9K0hAaNtLIVHm_dq1Z0la-uupNpLlmvKzmYuFADe_iZef-na5VOWGanO3TKAXISdMgFNSSNnVJovOOCW9HSbW3U3RVUtdLQeLQs0W_qVk6wa-vYy0]--></g></svg>